<?xml version="1.0" encoding="UTF-8" standalone="no"?>
<!-- Created with Inkscape (http://www.inkscape.org/) -->

<svg
   xmlns:dc="http://purl.org/dc/elements/1.1/"
   xmlns:cc="http://creativecommons.org/ns#"
   xmlns:rdf="http://www.w3.org/1999/02/22-rdf-syntax-ns#"
   xmlns:svg="http://www.w3.org/2000/svg"
   xmlns="http://www.w3.org/2000/svg"
   xmlns:sodipodi="http://sodipodi.sourceforge.net/DTD/sodipodi-0.dtd"
   xmlns:inkscape="http://www.inkscape.org/namespaces/inkscape"
   id="svg5660"
   version="1.1"
   inkscape:version="0.91 r13725"
   width="632.5"
   height="612.5"
   viewBox="0 0 632.5 612.5"
   sodipodi:docname="fax_icon.svg">
  <metadata
     id="metadata5666">
    <rdf:RDF>
      <cc:Work
         rdf:about="">
        <dc:format>image/svg+xml</dc:format>
        <dc:type
           rdf:resource="http://purl.org/dc/dcmitype/StillImage" />
        <dc:title />
      </cc:Work>
    </rdf:RDF>
  </metadata>
  <defs
     id="defs5664" />
  <sodipodi:namedview
     pagecolor="#ffffff"
     bordercolor="#666666"
     borderopacity="1"
     objecttolerance="10"
     gridtolerance="10"
     guidetolerance="10"
     inkscape:pageopacity="0"
     inkscape:pageshadow="2"
     inkscape:window-width="1366"
     inkscape:window-height="706"
     id="namedview5662"
     showgrid="false"
     inkscape:zoom="0.65459899"
     inkscape:cx="110.53463"
     inkscape:cy="259.34784"
     inkscape:window-x="-8"
     inkscape:window-y="-8"
     inkscape:window-maximized="1"
     inkscape:current-layer="svg5660" />
  <path
     style="fill:#4f4f4f;fill-opacity:1"
     d="m 84.956135,564.9056 c -13.52712,-2.79894 -29.66499,-15.59037 -35.06209,-27.79141 -4.93545,-11.1574 -5.09013,-17.24475 -4.72382,-185.90377 l 0.35428,-163.125 2.90329,-7.19011 c 5.83316,-14.44604 17.52624,-25.44099 31.77158,-29.87464 10.24872,-3.18975 55.603645,-3.39189 66.035755,-0.29429 14.29897,4.24578 26.85552,15.8531 32.63609,30.16893 l 2.90329,7.19011 0,169.375 0,169.375 -3.0064,7.5 c -4.22476,10.53946 -17.82319,24.09845 -28.2436,28.1617 -6.89168,2.68727 -9.62913,2.95028 -33.75,3.24256 -14.4375,0.17494 -28.755775,-0.2004 -31.818375,-0.83408 z m 150.350335,0.0204 c -14.97762,-3.02244 -31.06052,-16.4739 -36.8483,-30.81931 l -2.93366,-7.27127 -0.38431,-225.625 c -0.21137,-124.09375 -0.0267,-229.661114 0.4104,-234.594134 1.03987,-11.735983 6.09698,-20.570462 14.87515,-25.985984 l 6.15122,-3.794889 105.09877,-0.376344 c 111.89282,-0.400671 113.23762,-0.340382 127.40094,5.7115 13.70611,5.85653 18.44658,9.702834 46.63845,37.841353 29.91691,29.860298 33.25922,34.381448 39.2351,53.073488 2.45436,7.67704 2.87035,12.21457 3.39238,37.0031 l 0.595,28.25309 3.29344,2.00597 c 8.3225,5.0691 19.3959,18.03184 25.0568,29.33201 8.63949,17.24593 8.23665,10.07935 8.23665,146.53084 0,113.70337 -0.16864,123.74674 -2.20381,131.25 -3.34379,12.32789 -9.30995,23.05549 -18.10608,32.55612 -9.93547,10.73123 -20.54832,17.76393 -33.44011,22.15938 l -10,3.4095 -135.625,0.19679 c -74.59375,0.10825 -137.9731,-0.27705 -140.84303,-0.85619 z m 80.79906,-72.38342 c 0.74258,-1.38751 1.29397,-11.2414 1.29397,-23.12496 0,-27.38565 1.65495,-25.70717 -25.34685,-25.70717 -27.78723,0 -25.90314,-1.82953 -25.90314,25.15306 0,12.26552 0.54749,22.28429 1.29397,23.67911 1.20747,2.25617 2.8343,2.41783 24.33103,2.41783 21.49672,0 23.12355,-0.16166 24.33101,-2.41783 z m 75,0 c 0.74648,-1.39481 1.29397,-11.41358 1.29397,-23.6791 0,-26.98259 1.88409,-25.15306 -25.90314,-25.15306 -27.00181,0 -25.34686,-1.67848 -25.34686,25.70717 0,11.88356 0.55139,21.73745 1.29398,23.125 1.20746,2.25617 2.83429,2.41783 24.33102,2.41783 21.49673,0 23.12356,-0.16166 24.33102,-2.41783 z m 75,0 c 0.74648,-1.39481 1.29397,-11.41358 1.29397,-23.6791 0,-26.98259 1.88409,-25.15306 -25.90314,-25.15306 -27.00181,0 -25.34686,-1.67848 -25.34686,25.70717 0,11.88356 0.55139,21.73745 1.29398,23.125 1.20746,2.25617 2.83429,2.41783 24.33102,2.41783 21.49673,0 23.12356,-0.16166 24.33102,-2.41783 z m -150,-75 c 0.74258,-1.38751 1.29397,-11.2414 1.29397,-23.12496 0,-27.38565 1.65495,-25.70717 -25.34685,-25.70717 -27.78723,0 -25.90314,-1.82953 -25.90314,25.15306 0,12.26552 0.54749,22.28429 1.29397,23.67911 1.20747,2.25617 2.8343,2.41783 24.33103,2.41783 21.49672,0 23.12355,-0.16166 24.33101,-2.41783 z m 75,0 c 0.74258,-1.38751 1.29397,-11.2414 1.29397,-23.12496 0,-27.38565 1.65495,-25.70717 -25.34686,-25.70717 -27.78723,0 -25.90314,-1.82953 -25.90314,25.15306 0,12.26552 0.54749,22.28429 1.29398,23.67911 1.20746,2.25617 2.83429,2.41783 24.33102,2.41783 21.49673,0 23.12356,-0.16166 24.33102,-2.41783 z m 75,0 c 0.74258,-1.38751 1.29397,-11.2414 1.29397,-23.12496 0,-27.41182 1.6992,-25.70717 -25.625,-25.70717 -27.3242,0 -25.625,-1.70465 -25.625,25.70717 0,11.88356 0.55139,21.73745 1.29398,23.125 1.20746,2.25617 2.83429,2.41783 24.33102,2.41783 21.49673,0 23.12356,-0.16166 24.33102,-2.41783 z m -150,-75 c 0.74648,-1.39481 1.29397,-11.41358 1.29397,-23.6791 0,-26.96011 1.84095,-25.15306 -25.62499,-25.15306 -27.46595,0 -25.625,-1.80705 -25.625,25.15306 0,12.26552 0.54749,22.28429 1.29397,23.67911 1.20747,2.25617 2.8343,2.41783 24.33103,2.41783 21.49672,0 23.12355,-0.16166 24.33101,-2.41783 z m 75,0 c 0.74648,-1.39481 1.29397,-11.41358 1.29397,-23.6791 0,-26.98259 1.88409,-25.15306 -25.90314,-25.15306 -27.00181,0 -25.34686,-1.67848 -25.34686,25.70717 0,11.88356 0.55139,21.73745 1.29398,23.125 1.20746,2.25617 2.83429,2.41783 24.33102,2.41783 21.49673,0 23.12356,-0.16166 24.33102,-2.41783 z m 75,0 c 0.74648,-1.39481 1.29397,-11.41358 1.29397,-23.6791 0,-26.96011 1.84095,-25.15306 -25.625,-25.15306 -27.46595,0 -25.625,-1.80705 -25.625,25.15306 0,12.26552 0.54749,22.28429 1.29398,23.67911 1.20746,2.25617 2.83429,2.41783 24.33102,2.41783 21.49673,0 23.12356,-0.16166 24.33102,-2.41783 z m 29.06843,-153.71338 0.35054,-34.8812 -26.25,-0.46927 c -29.64145,-0.5299 -32.24515,-1.21564 -40.8719,-10.76443 -7.13835,-7.90125 -7.8781,-11.59291 -7.8781,-39.31473 l 0,-24.685876 -91.25,-0.0019 -91.24999,-0.0019 0.3324,72.500236 0.3324,72.50022 128.06705,0 128.06706,0 0.35054,-34.88119 z"
     id="path5684"
     inkscape:connector-curvature="0"
     inkscape:export-xdpi="2.71"
     inkscape:export-ydpi="2.71" />
</svg>
