<?xml version="1.0" encoding="UTF-8" standalone="no"?>
<!-- Created with Inkscape (http://www.inkscape.org/) -->

<svg
   xmlns:dc="http://purl.org/dc/elements/1.1/"
   xmlns:cc="http://creativecommons.org/ns#"
   xmlns:rdf="http://www.w3.org/1999/02/22-rdf-syntax-ns#"
   xmlns:svg="http://www.w3.org/2000/svg"
   xmlns="http://www.w3.org/2000/svg"
   xmlns:sodipodi="http://sodipodi.sourceforge.net/DTD/sodipodi-0.dtd"
   xmlns:inkscape="http://www.inkscape.org/namespaces/inkscape"
   id="svg5555"
   version="1.1"
   inkscape:version="0.91 r13725"
   width="530"
   height="535"
   viewBox="0 0 530 535"
   sodipodi:docname="world_icon.svg">
  <metadata
     id="metadata5561">
    <rdf:RDF>
      <cc:Work
         rdf:about="">
        <dc:format>image/svg+xml</dc:format>
        <dc:type
           rdf:resource="http://purl.org/dc/dcmitype/StillImage" />
        <dc:title />
      </cc:Work>
    </rdf:RDF>
  </metadata>
  <defs
     id="defs5559" />
  <sodipodi:namedview
     pagecolor="#ffffff"
     bordercolor="#666666"
     borderopacity="1"
     objecttolerance="10"
     gridtolerance="10"
     guidetolerance="10"
     inkscape:pageopacity="0"
     inkscape:pageshadow="2"
     inkscape:window-width="1366"
     inkscape:window-height="706"
     id="namedview5557"
     showgrid="false"
     inkscape:zoom="2.1196914"
     inkscape:cx="178.90256"
     inkscape:cy="266.49247"
     inkscape:window-x="-8"
     inkscape:window-y="-8"
     inkscape:window-maximized="1"
     inkscape:current-layer="svg5555" />
  <path
     style="fill:#4f4f4f;fill-opacity:1"
     d="M 244.68673,486.15307 C 134.51799,477.08848 44.240771,385.01561 38.319751,275.68135 c -2.38101,-43.96641 5.19708,-81.99959 23.48008,-117.84256 23.08876,-45.26446 58.436789,-80.273655 103.214239,-102.224875 62.69777,-30.73628 137.42059,-30.70733 200.02316,0.0775 45.66793,22.45722 81.10946,57.855635 103.8663,103.739935 18.04842,36.39077 24.89615,70.74251 22.79975,114.375 -3.87399,80.62895 -53.46681,154.63459 -127.72487,190.59939 -25.641,12.41849 -50.91004,19.29475 -80.21434,21.82809 -16.71639,1.44511 -20.63058,1.43703 -39.07734,-0.0808 z M 322.58697,435.667 c 16.23577,-5.29379 28.72079,-11.267 42.60305,-20.38258 13.16957,-8.6476 31.06096,-23.90387 29.59904,-25.23957 -0.56374,-0.51507 -3.10749,-1.60169 -5.65276,-2.41472 -2.63992,-0.84326 -4.96215,-2.53173 -5.40619,-3.93078 -0.42813,-1.3489 -3.80599,-4.68915 -7.50635,-7.42277 -6.66422,-4.92315 -11.74548,-6.17531 -15.47615,-3.81376 -1.20792,0.76463 -4.74261,-0.44017 -11.17883,-3.81026 -5.1768,-2.71065 -10.06754,-4.67705 -10.8683,-4.36976 -0.80076,0.30727 -1.81157,2.33686 -2.24623,4.51017 -0.58179,2.90896 -1.37072,3.83151 -2.99024,3.49673 -1.68775,-0.34889 -2.13589,-1.53488 -1.92482,-5.09405 0.15132,-2.55162 -0.12993,-4.63688 -0.625,-4.63394 -2.32473,0.0139 -12.00635,7.62455 -14.11952,11.09937 -1.30286,2.1424 -3.22087,3.89528 -4.26223,3.89528 -2.23406,0 -2.36404,2.71527 -0.62836,13.125 1.67695,10.05747 0.7372,13.4446 -5.75978,20.75986 -5.66804,6.3819 -6.76838,10.37644 -4.05509,14.7211 1.137,1.82061 1.00202,3.442 -0.625,7.50834 -1.14133,2.85246 -2.07514,5.78685 -2.07514,6.52086 0,1.93804 8.40569,0.29859 23.1979,-4.52452 z m -23.1979,-59.43441 c 0,-0.64693 -1.19388,-1.17623 -2.65305,-1.17623 -2.20783,0 -2.39384,0.31235 -1.10838,1.86124 1.5613,1.88124 3.76143,1.48056 3.76143,-0.68501 z m -14.3429,-11.11415 c -2.42479,-4.68903 -2.43814,-8.68677 -0.0321,-9.61004 2.43038,-0.93263 2.37021,-3.40565 -0.21542,-8.85448 l -2.09044,-4.40525 -7.87807,0.63238 c -10.08993,0.80992 -11.0544,-0.19224 -9.303,-9.66645 0.7136,-3.86022 2.15571,-8.2439 3.2047,-9.74154 2.57236,-3.67256 2.43517,-7.17132 -0.28027,-7.14756 -3.43072,0.03 -5.05704,1.56418 -7.26827,6.85639 -2.74459,6.56871 -5.00356,8.03842 -12.41923,8.08005 -8.31072,0.0466 -13.21123,-3.07994 -16.84942,-10.75013 -2.90678,-6.12819 -3.15943,-8.68987 -2.65286,-26.89769 l 0.26617,-9.56723 5.68088,-5.02021 c 6.23354,-5.5086 15.38941,-7.91809 20.23462,-5.32502 2.15556,1.15363 2.5804,0.94129 2.92149,-1.4602 0.37476,-2.63858 0.89508,-2.78295 8.52412,-2.36521 4.46875,0.24469 10.02183,1.22906 12.34015,2.1875 2.31834,0.95843 5.48345,1.7426 7.03358,1.7426 2.18535,0 3.41452,1.38571 5.47235,6.16923 1.45966,3.39308 2.65392,6.66057 2.65392,7.26109 0,0.60053 0.85214,2.18375 1.89364,3.51828 1.72814,2.21436 1.8221,1.73334 1.07519,-5.50408 -0.61506,-5.95986 -1.55152,-8.66359 -3.76864,-10.88069 -1.6226,-1.6226 -2.94809,-3.67889 -2.94551,-4.56952 0.0112,-3.73007 5.28104,-9.84697 10.96628,-12.72791 3.33359,-1.68925 6.75251,-3.90449 7.59757,-4.92274 2.2702,-2.73542 3.95724,-9.4302 2.58939,-10.27557 -1.84409,-1.13971 -1.34153,-8.49968 0.78796,-11.53995 1.26136,-1.80084 3.24013,-2.77814 5.625,-2.77814 2.89636,0 3.67913,-0.55477 3.67913,-2.60754 0,-1.93655 1.57616,-3.27345 6.1252,-5.19536 4.81776,-2.03544 6.35953,-3.41327 7.22303,-6.45496 0.80948,-2.85141 2.7301,-4.75114 7.31229,-7.23274 8.01349,-4.3399 10.71625,-5.64944 13.40198,-6.49347 2.91707,-0.91675 2.77095,-4.04083 -0.3125,-6.68097 -2.84857,-2.43901 -3.22374,-4.78542 -0.9375,-5.86327 0.85937,-0.40515 -0.125,-0.41191 -2.1875,-0.015 -2.0625,0.3969 -5.18703,2.08776 -6.9434,3.75747 -1.75637,1.66973 -4.14699,3.03585 -5.3125,3.03585 -5.03699,0 -0.47757,-9.96461 5.95641,-13.01773 7.47087,-3.54517 22.95424,-5.99884 27.78787,-4.40359 3.7206,1.22791 4.56644,1.03189 7.99463,-1.85274 2.10859,-1.77426 4.52689,-3.22594 5.37399,-3.22594 0.8471,0 2.53022,-0.72393 3.74028,-1.60876 2.03795,-1.49019 1.8775,-1.95081 -2.17715,-6.25 -3.11662,-3.30461 -5.43282,-4.64125 -8.0426,-4.64125 -4.97095,0 -9.49546,-3.8427 -11.30632,-9.60258 -0.82524,-2.62483 -3.08205,-6.60772 -5.01515,-8.85086 -3.49815,-4.05922 -3.52545,-4.06659 -5.79161,-1.5625 -1.25229,1.38376 -3.0411,2.51594 -3.97513,2.51594 -0.93403,0 -2.77541,0.67271 -4.09197,1.49492 -3.59712,2.24644 -11.31529,-2.15431 -11.34147,-6.46667 -0.01,-1.73429 -0.45003,-3.83119 -0.97667,-4.65978 -1.5313,-2.40923 -14.0853,-7.60896 -20.66681,-8.55996 l -6.03763,-0.8724 0.84561,5.63898 c 0.53188,3.54677 0.29556,6.66677 -0.6369,8.40911 -1.27807,2.38809 -1.03611,3.23609 1.7545,6.14886 5.0419,5.26261 4.22848,9.77775 -2.51199,13.94359 -4.7322,2.92466 -5.12833,4.60087 -2.35481,9.96426 1.75808,3.39976 1.71489,3.84804 -0.59321,6.15614 -6.32991,6.32991 -13.42356,3.89896 -17.01999,-5.83264 -2.95033,-7.98325 -3.95938,-9.11441 -8.13054,-9.11441 -1.94779,0 -5.60181,-1.39821 -8.12006,-3.10714 -5.5195,-3.74564 -11.83566,-5.62651 -18.92591,-5.63589 -4.19959,-0.005 -5.56074,-0.57759 -6.7088,-2.81947 -0.79216,-1.54687 -2.54903,-3.69607 -3.90417,-4.77599 -2.097,-1.67111 -2.33138,-2.84702 -1.5741,-7.89698 0.71955,-4.79828 5.67235,-14.25996 10.18803,-19.4629 0.2737,-0.31535 3.08696,-0.87785 6.2517,-1.25 4.75122,-0.5587 6.41781,-1.49822 9.5626,-5.39074 l 3.80852,-4.71412 -2.81902,-1.97453 c -1.55047,-1.085987 -3.31515,-3.279419 -3.92153,-4.874296 -0.74161,-1.95058 -1.841,-2.712585 -3.3586,-2.327913 -1.24086,0.314525 -4.44869,-0.555592 -7.12848,-1.933592 -5.05888,-2.601347 -7.00263,-2.440289 -7.00263,0.580235 0,0.97302 -1.73309,2.665345 -3.85131,3.76072 -2.43745,1.260457 -3.59908,2.648909 -3.16424,3.782099 2.27625,5.931787 -4.41046,7.493227 -7.39265,1.726297 l -1.97241,-3.814208 -10.87219,0.114887 c -5.97971,0.06318 -14.2472,-0.04854 -18.3722,-0.248291 -7.35537,-0.356171 -7.50763,-0.29689 -7.89553,3.074322 -0.49042,4.26225 -2.54163,4.3379 -8.4734,0.3125 -7.53987,-5.116698 -10.76763,-4.304738 -27.38107,6.88787 -15.58275,10.49823 -34.36317,29.07668 -45.63146,45.14072 l -4.96613,7.0797 4.79328,4.82086 c 2.63631,2.65146 5.02076,5.49687 5.2988,6.32314 0.27802,0.82626 3.54897,3.63876 7.26876,6.25 9.10212,6.38957 12.07259,10.45883 10.19529,13.96661 -0.79588,1.48712 -2.6463,2.6561 -4.20445,2.6561 -2.74468,0 -2.78275,0.23929 -2.76852,17.4009 0.0134,16.12704 0.21948,17.65981 2.81544,20.9375 1.54056,1.94514 3.56698,5.2241 4.50314,7.2866 1.93579,4.2648 6.90346,9.5932 13.85107,14.85689 2.834,2.14711 5.9375,6.1943 7.66828,10 2.07135,4.55458 2.92819,5.57301 2.97949,3.54138 0.17242,-6.82825 9.21499,-4.32588 11.23347,3.10867 0.72767,2.68011 4.29875,8.18685 8.21054,12.66093 3.80751,4.35481 7.77089,9.55794 8.80749,11.5625 1.03659,2.00455 2.42924,3.64464 3.09477,3.64464 2.18853,0 8.42858,9.89206 9.26126,14.68144 1.66235,9.56138 2.83247,10.91393 15.39003,17.78969 11.4087,6.24668 12.37192,6.54632 18.88355,5.87426 7.96559,-0.82212 10.3977,0.16128 16.4884,6.66696 4.24048,4.52936 10.91685,7.46486 17.01379,7.48067 1.89413,0.005 3.49376,1.57358 5.42451,5.31948 2.8499,5.52919 8.46619,12.1875 10.28016,12.1875 0.57654,0 0.19004,-1.65956 -0.85886,-3.68792 z m 5.0219,-269.778356 c -0.23395,-2.562302 -0.48244,-5.080606 -0.55219,-5.596231 -0.25749,-1.903517 -5.23133,-0.864016 -5.98103,1.25 -0.42668,1.203125 -1.62433,3.175324 -2.66146,4.382664 -2.21283,2.576036 -2.16997,2.628056 3.51568,4.266336 5.68569,1.638277 6.18679,1.258617 5.679,-4.302769 z m -83.7526,-8.950567 c -0.45317,-0.73324 -1.42213,-1.333164 -2.15323,-1.333164 -0.82887,0 -0.73403,0.717227 0.25191,1.905207 1.71442,2.065758 3.24666,1.60476 1.90132,-0.572043 z m 43.0736,-1.289184 c 0,-2.862558 -3.47836,-5.043978 -8.04283,-5.043978 -4.59626,0 -3.95536,2.10146 1.48033,4.853932 6.1057,3.09174 6.5625,3.104968 6.5625,0.190046 z"
     id="path5579"
     inkscape:connector-curvature="0"
     inkscape:export-xdpi="3.1700001"
     inkscape:export-ydpi="3.1700001" />
</svg>
